<svg xmlns="http://www.w3.org/2000/svg" xmlns:xlink="http://www.w3.org/1999/xlink" contentStyleType="text/css" data-diagram-type="CLASS" height="945px" preserveAspectRatio="none" style="width:893px;height:945px;background:#FFFFFF;" version="1.1" viewBox="0 0 893 945" width="893px" zoomAndPan="magnify"><?plantuml 1.2026.4beta2?><defs/><g><!--class User--><g class="entity" data-qualified-name="User" data-source-line="3" id="ent0002"><rect fill="#F1F1F1" height="145.7813" rx="2.5" ry="2.5" style="stroke:#181818;stroke-width:0.5;" width="171.9473" x="7" y="7"/><ellipse cx="72.7686" cy="23" fill="#ADD1B2" rx="11" ry="11" style="stroke:#181818;stroke-width:1;"/><path d="M75.7373,28.6406 Q75.1592,28.9375 74.5186,29.0781 Q73.8779,29.2344 73.1748,29.2344 Q70.6748,29.2344 69.3467,27.5938 Q68.0342,25.9375 68.0342,22.8125 Q68.0342,19.6875 69.3467,18.0313 Q70.6748,16.375 73.1748,16.375 Q73.8779,16.375 74.5186,16.5313 Q75.1748,16.6875 75.7373,16.9844 L75.7373,19.7031 Q75.1123,19.125 74.5186,18.8594 Q73.9248,18.5781 73.2998,18.5781 Q71.9561,18.5781 71.2686,19.6563 Q70.5811,20.7188 70.5811,22.8125 Q70.5811,24.9063 71.2686,25.9844 Q71.9561,27.0469 73.2998,27.0469 Q73.9248,27.0469 74.5186,26.7813 Q75.1123,26.5 75.7373,25.9219 L75.7373,28.6406 Z " fill="#000000"/><text fill="#000000" font-family="sans-serif" font-size="14" lengthAdjust="spacing" textLength="31.9102" x="93.2686" y="27.8467">User</text><line style="stroke:#181818;stroke-width:0.5;" x1="8" x2="177.9473" y1="39" y2="39"/><text fill="#000000" font-family="sans-serif" font-size="14" lengthAdjust="spacing" textLength="64.3604" x="13" y="55.9951">+UUID id</text><text fill="#000000" font-family="sans-serif" font-size="14" lengthAdjust="spacing" textLength="96.5713" x="13" y="72.292">+String email</text><text fill="#000000" font-family="sans-serif" font-size="14" lengthAdjust="spacing" textLength="148.9756" x="13" y="88.5889">+String displayName</text><text fill="#000000" font-family="sans-serif" font-size="14" lengthAdjust="spacing" textLength="159.9473" x="13" y="104.8857">+String passwordHash</text><text fill="#000000" font-family="sans-serif" font-size="14" lengthAdjust="spacing" textLength="135.7207" x="13" y="121.1826">+UserStatus status</text><text fill="#000000" font-family="sans-serif" font-size="14" lengthAdjust="spacing" textLength="133.6084" x="13" y="137.4795">+Instant createdAt</text><line style="stroke:#181818;stroke-width:0.5;" x1="8" x2="177.9473" y1="144.7813" y2="144.7813"/></g><!--class RoleName--><g class="entity" data-qualified-name="RoleName" data-source-line="12" id="ent0003"><rect fill="#F1F1F1" height="96.8906" rx="2.5" ry="2.5" style="stroke:#181818;stroke-width:0.5;" width="104.3262" x="396.81" y="31.44"/><ellipse cx="411.9124" cy="47.44" fill="#EB937F" rx="11" ry="11" style="stroke:#181818;stroke-width:1;"/><path d="M416.0218,53.44 L408.303,53.44 L408.303,41.0494 L416.0218,41.0494 L416.0218,43.2056 L410.7561,43.2056 L410.7561,45.8775 L415.5218,45.8775 L415.5218,48.0337 L410.7561,48.0337 L410.7561,51.2837 L416.0218,51.2837 L416.0218,53.44 Z " fill="#000000"/><text fill="#000000" font-family="sans-serif" font-size="14" lengthAdjust="spacing" textLength="72.0986" x="425.9351" y="52.2867">RoleName</text><line style="stroke:#181818;stroke-width:0.5;" x1="397.81" x2="500.1362" y1="63.44" y2="63.44"/><text fill="#000000" font-family="sans-serif" font-size="14" lengthAdjust="spacing" textLength="92.3262" x="402.81" y="80.4351">ANONYMOUS</text><text fill="#000000" font-family="sans-serif" font-size="14" lengthAdjust="spacing" textLength="29.1895" x="402.81" y="96.732">PRO</text><text fill="#000000" font-family="sans-serif" font-size="14" lengthAdjust="spacing" textLength="46.1494" x="402.81" y="113.0289">SUPER</text><line style="stroke:#181818;stroke-width:0.5;" x1="397.81" x2="500.1362" y1="120.3306" y2="120.3306"/></g><!--class Role--><g class="entity" data-qualified-name="Role" data-source-line="18" id="ent0004"><rect fill="#F1F1F1" height="96.8906" rx="2.5" ry="2.5" style="stroke:#181818;stroke-width:0.5;" width="147.8027" x="214.07" y="31.44"/><ellipse cx="268.3234" cy="47.44" fill="#ADD1B2" rx="11" ry="11" style="stroke:#181818;stroke-width:1;"/><path d="M271.2922,53.0806 Q270.714,53.3775 270.0734,53.5181 Q269.4328,53.6744 268.7297,53.6744 Q266.2297,53.6744 264.9015,52.0337 Q263.589,50.3775 263.589,47.2525 Q263.589,44.1275 264.9015,42.4712 Q266.2297,40.815 268.7297,40.815 Q269.4328,40.815 270.0734,40.9712 Q270.7297,41.1275 271.2922,41.4244 L271.2922,44.1431 Q270.6672,43.565 270.0734,43.2994 Q269.4797,43.0181 268.8547,43.0181 Q267.5109,43.0181 266.8234,44.0962 Q266.1359,45.1587 266.1359,47.2525 Q266.1359,49.3462 266.8234,50.4244 Q267.5109,51.4869 268.8547,51.4869 Q269.4797,51.4869 270.0734,51.2212 Q270.6672,50.94 271.2922,50.3619 L271.2922,53.0806 Z " fill="#000000"/><text fill="#000000" font-family="sans-serif" font-size="14" lengthAdjust="spacing" textLength="30.7959" x="288.8234" y="52.2867">Role</text><line style="stroke:#181818;stroke-width:0.5;" x1="215.07" x2="360.8727" y1="63.44" y2="63.44"/><text fill="#000000" font-family="sans-serif" font-size="14" lengthAdjust="spacing" textLength="64.3604" x="220.07" y="80.4351">+UUID id</text><text fill="#000000" font-family="sans-serif" font-size="14" lengthAdjust="spacing" textLength="127.9824" x="220.07" y="96.732">+RoleName name</text><text fill="#000000" font-family="sans-serif" font-size="14" lengthAdjust="spacing" textLength="135.8027" x="220.07" y="113.0289">+String description</text><line style="stroke:#181818;stroke-width:0.5;" x1="215.07" x2="360.8727" y1="120.3306" y2="120.3306"/></g><!--class UserRole--><g class="entity" data-qualified-name="UserRole" data-source-line="24" id="ent0005"><rect fill="#F1F1F1" height="80.5938" rx="2.5" ry="2.5" style="stroke:#181818;stroke-width:0.5;" width="107.1357" x="221.41" y="246.08"/><ellipse cx="242.0034" cy="262.08" fill="#ADD1B2" rx="11" ry="11" style="stroke:#181818;stroke-width:1;"/><path d="M244.9721,267.7206 Q244.394,268.0175 243.7534,268.1581 Q243.1127,268.3144 242.4096,268.3144 Q239.9096,268.3144 238.5815,266.6737 Q237.269,265.0175 237.269,261.8925 Q237.269,258.7675 238.5815,257.1112 Q239.9096,255.455 242.4096,255.455 Q243.1127,255.455 243.7534,255.6112 Q244.4096,255.7675 244.9721,256.0644 L244.9721,258.7831 Q244.3471,258.205 243.7534,257.9394 Q243.1596,257.6581 242.5346,257.6581 Q241.1909,257.6581 240.5034,258.7362 Q239.8159,259.7987 239.8159,261.8925 Q239.8159,263.9862 240.5034,265.0644 Q241.1909,266.1269 242.5346,266.1269 Q243.1596,266.1269 243.7534,265.8612 Q244.3471,265.58 244.9721,265.0019 L244.9721,267.7206 Z " fill="#000000"/><text fill="#000000" font-family="sans-serif" font-size="14" lengthAdjust="spacing" textLength="62.7061" x="257.2463" y="266.9267">UserRole</text><line style="stroke:#181818;stroke-width:0.5;" x1="222.41" x2="327.5457" y1="278.08" y2="278.08"/><text fill="#000000" font-family="sans-serif" font-size="14" lengthAdjust="spacing" textLength="95.1357" x="227.41" y="295.0751">+UUID userId</text><text fill="#000000" font-family="sans-serif" font-size="14" lengthAdjust="spacing" textLength="91.4238" x="227.41" y="311.372">+UUID roleId</text><line style="stroke:#181818;stroke-width:0.5;" x1="222.41" x2="327.5457" y1="318.6737" y2="318.6737"/></g><!--class AuthToken--><g class="entity" data-qualified-name="AuthToken" data-source-line="29" id="ent0006"><rect fill="#F1F1F1" height="80.5938" rx="2.5" ry="2.5" style="stroke:#181818;stroke-width:0.5;" width="159.8477" x="13.05" y="246.08"/><ellipse cx="51.5959" cy="262.08" fill="#ADD1B2" rx="11" ry="11" style="stroke:#181818;stroke-width:1;"/><path d="M54.5646,267.7206 Q53.9865,268.0175 53.3459,268.1581 Q52.7053,268.3144 52.0021,268.3144 Q49.5021,268.3144 48.174,266.6737 Q46.8615,265.0175 46.8615,261.8925 Q46.8615,258.7675 48.174,257.1112 Q49.5021,255.455 52.0021,255.455 Q52.7053,255.455 53.3459,255.6112 Q54.0021,255.7675 54.5646,256.0644 L54.5646,258.7831 Q53.9396,258.205 53.3459,257.9394 Q52.7521,257.6581 52.1271,257.6581 Q50.7834,257.6581 50.0959,258.7362 Q49.4084,259.7987 49.4084,261.8925 Q49.4084,263.9862 50.0959,265.0644 Q50.7834,266.1269 52.1271,266.1269 Q52.7521,266.1269 53.3459,265.8612 Q53.9396,265.58 54.5646,265.0019 L54.5646,267.7206 Z " fill="#000000"/><text fill="#000000" font-family="sans-serif" font-size="14" lengthAdjust="spacing" textLength="75.5234" x="70.8283" y="266.9267">AuthToken</text><line style="stroke:#181818;stroke-width:0.5;" x1="14.05" x2="171.8977" y1="278.08" y2="278.08"/><text fill="#000000" font-family="sans-serif" font-size="14" lengthAdjust="spacing" textLength="147.8477" x="19.05" y="295.0751">+String accessToken</text><text fill="#000000" font-family="sans-serif" font-size="14" lengthAdjust="spacing" textLength="131.3115" x="19.05" y="311.372">+Instant expiresAt</text><line style="stroke:#181818;stroke-width:0.5;" x1="14.05" x2="171.8977" y1="318.6737" y2="318.6737"/></g><!--class Language--><g class="entity" data-qualified-name="Language" data-source-line="34" id="ent0007"><rect fill="#F1F1F1" height="96.8906" rx="2.5" ry="2.5" style="stroke:#181818;stroke-width:0.5;" width="109.665" x="536.14" y="31.44"/><ellipse cx="554.9984" cy="47.44" fill="#ADD1B2" rx="11" ry="11" style="stroke:#181818;stroke-width:1;"/><path d="M557.9671,53.0806 Q557.389,53.3775 556.7484,53.5181 Q556.1078,53.6744 555.4046,53.6744 Q552.9046,53.6744 551.5765,52.0337 Q550.264,50.3775 550.264,47.2525 Q550.264,44.1275 551.5765,42.4712 Q552.9046,40.815 555.4046,40.815 Q556.1078,40.815 556.7484,40.9712 Q557.4046,41.1275 557.9671,41.4244 L557.9671,44.1431 Q557.3421,43.565 556.7484,43.2994 Q556.1546,43.0181 555.5296,43.0181 Q554.1859,43.0181 553.4984,44.0962 Q552.8109,45.1587 552.8109,47.2525 Q552.8109,49.3462 553.4984,50.4244 Q554.1859,51.4869 555.5296,51.4869 Q556.1546,51.4869 556.7484,51.2212 Q557.3421,50.94 557.9671,50.3619 L557.9671,53.0806 Z " fill="#000000"/><text fill="#000000" font-family="sans-serif" font-size="14" lengthAdjust="spacing" textLength="69.0908" x="569.8558" y="52.2867">Language</text><line style="stroke:#181818;stroke-width:0.5;" x1="537.14" x2="644.805" y1="63.44" y2="63.44"/><text fill="#000000" font-family="sans-serif" font-size="14" lengthAdjust="spacing" textLength="64.3604" x="542.14" y="80.4351">+UUID id</text><text fill="#000000" font-family="sans-serif" font-size="14" lengthAdjust="spacing" textLength="91.7246" x="542.14" y="96.732">+String code</text><text fill="#000000" font-family="sans-serif" font-size="14" lengthAdjust="spacing" textLength="97.665" x="542.14" y="113.0289">+String name</text><line style="stroke:#181818;stroke-width:0.5;" x1="537.14" x2="644.805" y1="120.3306" y2="120.3306"/></g><!--class Stage--><g class="entity" data-qualified-name="Stage" data-source-line="40" id="ent0008"><rect fill="#F1F1F1" height="113.1875" rx="2.5" ry="2.5" style="stroke:#181818;stroke-width:0.5;" width="141.7803" x="520.08" y="229.78"/><ellipse cx="566.4926" cy="245.78" fill="#ADD1B2" rx="11" ry="11" style="stroke:#181818;stroke-width:1;"/><path d="M569.4613,251.4206 Q568.8832,251.7175 568.2426,251.8581 Q567.602,252.0144 566.8988,252.0144 Q564.3988,252.0144 563.0707,250.3737 Q561.7582,248.7175 561.7582,245.5925 Q561.7582,242.4675 563.0707,240.8112 Q564.3988,239.155 566.8988,239.155 Q567.602,239.155 568.2426,239.3112 Q568.8988,239.4675 569.4613,239.7644 L569.4613,242.4831 Q568.8363,241.905 568.2426,241.6394 Q567.6488,241.3581 567.0238,241.3581 Q565.6801,241.3581 564.9926,242.4362 Q564.3051,243.4987 564.3051,245.5925 Q564.3051,247.6862 564.9926,248.7644 Q565.6801,249.8269 567.0238,249.8269 Q567.6488,249.8269 568.2426,249.5612 Q568.8363,249.28 569.4613,248.7019 L569.4613,251.4206 Z " fill="#000000"/><text fill="#000000" font-family="sans-serif" font-size="14" lengthAdjust="spacing" textLength="40.4551" x="586.9926" y="250.6267">Stage</text><line style="stroke:#181818;stroke-width:0.5;" x1="521.08" x2="660.8603" y1="261.78" y2="261.78"/><text fill="#000000" font-family="sans-serif" font-size="14" lengthAdjust="spacing" textLength="64.3604" x="526.08" y="278.7751">+UUID id</text><text fill="#000000" font-family="sans-serif" font-size="14" lengthAdjust="spacing" textLength="129.7803" x="526.08" y="295.072">+UUID languageId</text><text fill="#000000" font-family="sans-serif" font-size="14" lengthAdjust="spacing" textLength="89.0723" x="526.08" y="311.3689">+int number</text><text fill="#000000" font-family="sans-serif" font-size="14" lengthAdjust="spacing" textLength="85.333" x="526.08" y="327.6657">+String title</text><line style="stroke:#181818;stroke-width:0.5;" x1="521.08" x2="660.8603" y1="334.9675" y2="334.9675"/></g><!--class Level--><g class="entity" data-qualified-name="Level" data-source-line="47" id="ent0009"><rect fill="#F1F1F1" height="113.1875" rx="2.5" ry="2.5" style="stroke:#181818;stroke-width:0.5;" width="115.4619" x="533.24" y="412.12"/><ellipse cx="569.0573" cy="428.12" fill="#ADD1B2" rx="11" ry="11" style="stroke:#181818;stroke-width:1;"/><path d="M572.0261,433.7606 Q571.448,434.0575 570.8073,434.1981 Q570.1667,434.3544 569.4636,434.3544 Q566.9636,434.3544 565.6355,432.7138 Q564.323,431.0575 564.323,427.9325 Q564.323,424.8075 565.6355,423.1513 Q566.9636,421.495 569.4636,421.495 Q570.1667,421.495 570.8073,421.6513 Q571.4636,421.8075 572.0261,422.1044 L572.0261,424.8231 Q571.4011,424.245 570.8073,423.9794 Q570.2136,423.6981 569.5886,423.6981 Q568.2448,423.6981 567.5573,424.7763 Q566.8698,425.8388 566.8698,427.9325 Q566.8698,430.0263 567.5573,431.1044 Q568.2448,432.1669 569.5886,432.1669 Q570.2136,432.1669 570.8073,431.9013 Q571.4011,431.62 572.0261,431.0419 L572.0261,433.7606 Z " fill="#000000"/><text fill="#000000" font-family="sans-serif" font-size="14" lengthAdjust="spacing" textLength="37.2012" x="587.6834" y="432.9667">Level</text><line style="stroke:#181818;stroke-width:0.5;" x1="534.24" x2="647.7019" y1="444.12" y2="444.12"/><text fill="#000000" font-family="sans-serif" font-size="14" lengthAdjust="spacing" textLength="64.3604" x="539.24" y="461.1151">+UUID id</text><text fill="#000000" font-family="sans-serif" font-size="14" lengthAdjust="spacing" textLength="103.4619" x="539.24" y="477.412">+UUID stageId</text><text fill="#000000" font-family="sans-serif" font-size="14" lengthAdjust="spacing" textLength="89.0723" x="539.24" y="493.7089">+int number</text><text fill="#000000" font-family="sans-serif" font-size="14" lengthAdjust="spacing" textLength="85.333" x="539.24" y="510.0057">+String title</text><line style="stroke:#181818;stroke-width:0.5;" x1="534.24" x2="647.7019" y1="517.3075" y2="517.3075"/></g><!--class Lesson--><g class="entity" data-qualified-name="Lesson" data-source-line="54" id="ent0010"><rect fill="#F1F1F1" height="113.1875" rx="2.5" ry="2.5" style="stroke:#181818;stroke-width:0.5;" width="113.8965" x="534.03" y="602.6"/><ellipse cx="564.0857" cy="618.6" fill="#ADD1B2" rx="11" ry="11" style="stroke:#181818;stroke-width:1;"/><path d="M567.0544,624.2406 Q566.4763,624.5375 565.8357,624.6781 Q565.195,624.8344 564.4919,624.8344 Q561.9919,624.8344 560.6638,623.1938 Q559.3513,621.5375 559.3513,618.4125 Q559.3513,615.2875 560.6638,613.6313 Q561.9919,611.975 564.4919,611.975 Q565.195,611.975 565.8357,612.1313 Q566.4919,612.2875 567.0544,612.5844 L567.0544,615.3031 Q566.4294,614.725 565.8357,614.4594 Q565.2419,614.1781 564.6169,614.1781 Q563.2732,614.1781 562.5857,615.2563 Q561.8982,616.3188 561.8982,618.4125 Q561.8982,620.5063 562.5857,621.5844 Q563.2732,622.6469 564.6169,622.6469 Q565.2419,622.6469 565.8357,622.3813 Q566.4294,622.1 567.0544,621.5219 L567.0544,624.2406 Z " fill="#000000"/><text fill="#000000" font-family="sans-serif" font-size="14" lengthAdjust="spacing" textLength="48.4395" x="581.4314" y="623.4467">Lesson</text><line style="stroke:#181818;stroke-width:0.5;" x1="535.03" x2="646.9265" y1="634.6" y2="634.6"/><text fill="#000000" font-family="sans-serif" font-size="14" lengthAdjust="spacing" textLength="64.3604" x="540.03" y="651.5951">+UUID id</text><text fill="#000000" font-family="sans-serif" font-size="14" lengthAdjust="spacing" textLength="97.8906" x="540.03" y="667.892">+UUID levelId</text><text fill="#000000" font-family="sans-serif" font-size="14" lengthAdjust="spacing" textLength="101.8965" x="540.03" y="684.1889">+int sequence</text><text fill="#000000" font-family="sans-serif" font-size="14" lengthAdjust="spacing" textLength="85.333" x="540.03" y="700.4857">+String title</text><line style="stroke:#181818;stroke-width:0.5;" x1="535.03" x2="646.9265" y1="707.7875" y2="707.7875"/></g><!--class ContentBlock--><g class="entity" data-qualified-name="ContentBlock" data-source-line="61" id="ent0011"><rect fill="#F1F1F1" height="129.4844" rx="2.5" ry="2.5" style="stroke:#181818;stroke-width:0.5;" width="141.4453" x="615.25" y="800.94"/><ellipse cx="637.4061" cy="816.94" fill="#ADD1B2" rx="11" ry="11" style="stroke:#181818;stroke-width:1;"/><path d="M640.3748,822.5806 Q639.7967,822.8775 639.1561,823.0181 Q638.5154,823.1744 637.8123,823.1744 Q635.3123,823.1744 633.9842,821.5337 Q632.6717,819.8775 632.6717,816.7525 Q632.6717,813.6275 633.9842,811.9712 Q635.3123,810.315 637.8123,810.315 Q638.5154,810.315 639.1561,810.4712 Q639.8123,810.6275 640.3748,810.9244 L640.3748,813.6431 Q639.7498,813.065 639.1561,812.7994 Q638.5623,812.5181 637.9373,812.5181 Q636.5936,812.5181 635.9061,813.5962 Q635.2186,814.6587 635.2186,816.7525 Q635.2186,818.8462 635.9061,819.9244 Q636.5936,820.9869 637.9373,820.9869 Q638.5623,820.9869 639.1561,820.7212 Q639.7498,820.44 640.3748,819.8619 L640.3748,822.5806 Z " fill="#000000"/><text fill="#000000" font-family="sans-serif" font-size="14" lengthAdjust="spacing" textLength="93.543" x="652.9963" y="821.7867">ContentBlock</text><line style="stroke:#181818;stroke-width:0.5;" x1="616.25" x2="755.6953" y1="832.94" y2="832.94"/><text fill="#000000" font-family="sans-serif" font-size="14" lengthAdjust="spacing" textLength="64.3604" x="621.25" y="849.9351">+UUID id</text><text fill="#000000" font-family="sans-serif" font-size="14" lengthAdjust="spacing" textLength="109.1289" x="621.25" y="866.232">+UUID lessonId</text><text fill="#000000" font-family="sans-serif" font-size="14" lengthAdjust="spacing" textLength="129.4453" x="621.25" y="882.5289">+String blockType</text><text fill="#000000" font-family="sans-serif" font-size="14" lengthAdjust="spacing" textLength="85.8389" x="621.25" y="898.8257">+String text</text><text fill="#000000" font-family="sans-serif" font-size="14" lengthAdjust="spacing" textLength="101.5684" x="621.25" y="915.1226">+int sortOrder</text><line style="stroke:#181818;stroke-width:0.5;" x1="616.25" x2="755.6953" y1="922.4244" y2="922.4244"/></g><!--class SourceDocument--><g class="entity" data-qualified-name="SourceDocument" data-source-line="69" id="ent0012"><rect fill="#F1F1F1" height="129.4844" rx="2.5" ry="2.5" style="stroke:#181818;stroke-width:0.5;" width="170.9834" x="695.48" y="403.97"/><ellipse cx="718.6081" cy="419.97" fill="#ADD1B2" rx="11" ry="11" style="stroke:#181818;stroke-width:1;"/><path d="M721.5769,425.6106 Q720.9988,425.9075 720.3581,426.0481 Q719.7175,426.2044 719.0144,426.2044 Q716.5144,426.2044 715.1863,424.5637 Q713.8738,422.9075 713.8738,419.7825 Q713.8738,416.6575 715.1863,415.0012 Q716.5144,413.345 719.0144,413.345 Q719.7175,413.345 720.3581,413.5012 Q721.0144,413.6575 721.5769,413.9544 L721.5769,416.6731 Q720.9519,416.095 720.3581,415.8294 Q719.7644,415.5481 719.1394,415.5481 Q717.7956,415.5481 717.1081,416.6262 Q716.4206,417.6887 716.4206,419.7825 Q716.4206,421.8762 717.1081,422.9544 Q717.7956,424.0169 719.1394,424.0169 Q719.7644,424.0169 720.3581,423.7512 Q720.9519,423.47 721.5769,422.8919 L721.5769,425.6106 Z " fill="#000000"/><text fill="#000000" font-family="sans-serif" font-size="14" lengthAdjust="spacing" textLength="120.9209" x="734.4144" y="424.8167">SourceDocument</text><line style="stroke:#181818;stroke-width:0.5;" x1="696.48" x2="865.4634" y1="435.97" y2="435.97"/><text fill="#000000" font-family="sans-serif" font-size="14" lengthAdjust="spacing" textLength="64.3604" x="701.48" y="452.9651">+UUID id</text><text fill="#000000" font-family="sans-serif" font-size="14" lengthAdjust="spacing" textLength="120.5859" x="701.48" y="469.262">+String fileName</text><text fill="#000000" font-family="sans-serif" font-size="14" lengthAdjust="spacing" textLength="158.9834" x="701.48" y="485.5589">+String languageCode</text><text fill="#000000" font-family="sans-serif" font-size="14" lengthAdjust="spacing" textLength="128.7549" x="701.48" y="501.8557">+String checksum</text><text fill="#000000" font-family="sans-serif" font-size="14" lengthAdjust="spacing" textLength="150.2744" x="701.48" y="518.1526">+ImportStatus status</text><line style="stroke:#181818;stroke-width:0.5;" x1="696.48" x2="865.4634" y1="525.4544" y2="525.4544"/></g><!--class WordImportJob--><g class="entity" data-qualified-name="WordImportJob" data-source-line="77" id="ent0013"><rect fill="#F1F1F1" height="129.4844" rx="2.5" ry="2.5" style="stroke:#181818;stroke-width:0.5;" width="195.9277" x="683.01" y="594.45"/><ellipse cx="724.4844" cy="610.45" fill="#ADD1B2" rx="11" ry="11" style="stroke:#181818;stroke-width:1;"/><path d="M727.4532,616.0906 Q726.875,616.3875 726.2344,616.5281 Q725.5938,616.6844 724.8907,616.6844 Q722.3907,616.6844 721.0625,615.0437 Q719.75,613.3875 719.75,610.2625 Q719.75,607.1375 721.0625,605.4812 Q722.3907,603.825 724.8907,603.825 Q725.5938,603.825 726.2344,603.9812 Q726.8907,604.1375 727.4532,604.4344 L727.4532,607.1531 Q726.8282,606.575 726.2344,606.3094 Q725.6407,606.0281 725.0157,606.0281 Q723.6719,606.0281 722.9844,607.1062 Q722.2969,608.1687 722.2969,610.2625 Q722.2969,612.3562 722.9844,613.4344 Q723.6719,614.4969 725.0157,614.4969 Q725.6407,614.4969 726.2344,614.2312 Q726.8282,613.95 727.4532,613.3719 L727.4532,616.0906 Z " fill="#000000"/><text fill="#000000" font-family="sans-serif" font-size="14" lengthAdjust="spacing" textLength="105.0957" x="744.3676" y="615.2967">WordImportJob</text><line style="stroke:#181818;stroke-width:0.5;" x1="684.01" x2="877.9377" y1="626.45" y2="626.45"/><text fill="#000000" font-family="sans-serif" font-size="14" lengthAdjust="spacing" textLength="64.3604" x="689.01" y="643.4451">+UUID id</text><text fill="#000000" font-family="sans-serif" font-size="14" lengthAdjust="spacing" textLength="183.9277" x="689.01" y="659.742">+UUID sourceDocumentId</text><text fill="#000000" font-family="sans-serif" font-size="14" lengthAdjust="spacing" textLength="130.0811" x="689.01" y="676.0389">+Instant startedAt</text><text fill="#000000" font-family="sans-serif" font-size="14" lengthAdjust="spacing" textLength="154.2529" x="689.01" y="692.3357">+Instant completedAt</text><text fill="#000000" font-family="sans-serif" font-size="14" lengthAdjust="spacing" textLength="150.2744" x="689.01" y="708.6326">+ImportStatus status</text><line style="stroke:#181818;stroke-width:0.5;" x1="684.01" x2="877.9377" y1="715.9344" y2="715.9344"/></g><!--link User to UserRole--><g class="link" data-entity-1="ent0002" data-entity-2="ent0005" data-link-type="association" data-source-line="85" id="lnk14"><path codeLine="85" d="M157.4,153.27 C185.11,184.41 216.42,219.59 239.77,245.82" fill="none" id="User-UserRole" style="stroke:#181818;stroke-width:1;"/><text fill="#000000" font-family="sans-serif" font-size="13" lengthAdjust="spacing" textLength="8.271" x="154.983" y="172.7991">1</text><text fill="#000000" font-family="sans-serif" font-size="13" lengthAdjust="spacing" textLength="23.0356" x="209.037" y="234.9385">0..*</text></g><!--link Role to UserRole--><g class="link" data-entity-1="ent0004" data-entity-2="ent0005" data-link-type="association" data-source-line="86" id="lnk15"><path codeLine="86" d="M284.93,128.83 C282.67,164.36 279.62,212.22 277.5,245.63" fill="none" id="Role-UserRole" style="stroke:#181818;stroke-width:1;"/><text fill="#000000" font-family="sans-serif" font-size="13" lengthAdjust="spacing" textLength="8.271" x="276.002" y="148.4906">1</text><text fill="#000000" font-family="sans-serif" font-size="13" lengthAdjust="spacing" textLength="23.0356" x="253.072" y="235.0181">0..*</text></g><!--link User to AuthToken--><g class="link" data-entity-1="ent0002" data-entity-2="ent0006" data-link-type="dependency" data-source-line="87" id="lnk16"><path codeLine="87" d="M92.97,153.27 C92.97,184.41 92.97,213.59 92.97,239.82" fill="none" id="User-to-AuthToken" style="stroke:#181818;stroke-width:1;stroke-dasharray:7,7;"/><polygon fill="#181818" points="92.97,245.82,96.97,236.82,92.97,240.82,88.97,236.82,92.97,245.82" style="stroke:#181818;stroke-width:1;"/><text fill="#000000" font-family="sans-serif" font-size="13" lengthAdjust="spacing" textLength="54.5645" x="93.97" y="195.8469">receives</text></g><!--link Language to Stage--><g class="link" data-entity-1="ent0007" data-entity-2="ent0008" data-link-type="association" data-source-line="88" id="lnk17"><path codeLine="88" d="M590.97,128.83 C590.97,158.93 590.97,197.88 590.97,229.4" fill="none" id="Language-Stage" style="stroke:#181818;stroke-width:1;"/><text fill="#000000" font-family="sans-serif" font-size="13" lengthAdjust="spacing" textLength="8.271" x="582.4504" y="148.4906">1</text><text fill="#000000" font-family="sans-serif" font-size="13" lengthAdjust="spacing" textLength="23.0356" x="566.5706" y="218.6172">1..*</text></g><!--link Stage to Level--><g class="link" data-entity-1="ent0008" data-entity-2="ent0009" data-link-type="association" data-source-line="89" id="lnk18"><path codeLine="89" d="M590.97,343.44 C590.97,365.16 590.97,389.96 590.97,411.67" fill="none" id="Stage-Level" style="stroke:#181818;stroke-width:1;"/><text fill="#000000" font-family="sans-serif" font-size="13" lengthAdjust="spacing" textLength="8.271" x="582.5232" y="362.98">1</text><text fill="#000000" font-family="sans-serif" font-size="13" lengthAdjust="spacing" textLength="23.0356" x="566.5705" y="400.8787">1..*</text></g><!--link Level to Lesson--><g class="link" data-entity-1="ent0009" data-entity-2="ent0010" data-link-type="association" data-source-line="90" id="lnk19"><path codeLine="90" d="M590.97,525.75 C590.97,549.95 590.97,578.19 590.97,602.37" fill="none" id="Level-Lesson" style="stroke:#181818;stroke-width:1;"/><text fill="#000000" font-family="sans-serif" font-size="13" lengthAdjust="spacing" textLength="8.271" x="582.5231" y="545.2866">1</text><text fill="#000000" font-family="sans-serif" font-size="13" lengthAdjust="spacing" textLength="23.0356" x="566.5696" y="591.6055">0..*</text></g><!--link Lesson to ContentBlock--><g class="link" data-entity-1="ent0010" data-entity-2="ent0011" data-link-type="association" data-source-line="91" id="lnk20"><path codeLine="91" d="M616.93,716.07 C629.07,742.2 643.6,773.46 656.18,800.56" fill="none" id="Lesson-ContentBlock" style="stroke:#181818;stroke-width:1;"/><text fill="#000000" font-family="sans-serif" font-size="13" lengthAdjust="spacing" textLength="8.271" x="611.6219" y="735.9908">1</text><text fill="#000000" font-family="sans-serif" font-size="13" lengthAdjust="spacing" textLength="23.0356" x="628.6656" y="789.6911">0..*</text></g><!--link SourceDocument to WordImportJob--><g class="link" data-entity-1="ent0012" data-entity-2="ent0013" data-link-type="association" data-source-line="92" id="lnk21"><path codeLine="92" d="M780.97,533.78 C780.97,553.21 780.97,574.54 780.97,593.98" fill="none" id="SourceDocument-WordImportJob" style="stroke:#181818;stroke-width:1;"/><text fill="#000000" font-family="sans-serif" font-size="13" lengthAdjust="spacing" textLength="8.271" x="772.5713" y="553.3373">1</text><text fill="#000000" font-family="sans-serif" font-size="13" lengthAdjust="spacing" textLength="23.0356" x="756.7855" y="583.5553">0..*</text></g><!--link WordImportJob to ContentBlock--><g class="link" data-entity-1="ent0013" data-entity-2="ent0011" data-link-type="dependency" data-source-line="93" id="lnk22"><path codeLine="93" d="M751.18,724.33 C739.86,748.69 729.4965,770.9879 718.1965,795.3279" fill="none" id="WordImportJob-to-ContentBlock" style="stroke:#181818;stroke-width:1;stroke-dasharray:7,7;"/><polygon fill="#181818" points="715.67,800.77,723.0879,794.2912,717.7754,796.2349,715.8317,790.9225,715.67,800.77" style="stroke:#181818;stroke-width:1;"/><text fill="#000000" font-family="sans-serif" font-size="13" lengthAdjust="spacing" textLength="48.3247" x="737.97" y="767.0069">creates</text></g><?plantuml-src bLHBJ-Cm4BxxLrWzigA2AuULoaFQ86XHGuGukixGMdNiuB5PMBJ_VVreKvjj3bnIUnxVDpF-fhWLgcU6TPHBXZYpreYLir1nhMhn1-WP8T536mH3FmcbFvgckgQY3SVQXwirXOu9cTrRWRra7tFMGMRjFSnlRTfV33SHnoFMbbc75EDFC5RAdvMbt02pqCui-Ki8ADVHfPOG46CHi_bY_do_Q6f_VbWk_BTk7cwM8JYL6wB_AtU0K6LbBI0tehT2gmD2AEyBYlEcgXskndlzTSYOERjvr5jGAMK7pZW7n6ZF6uJtNXZ0r63AlsDgxTWQniRCTPjN7PiOalqaZsJ6ezpXfjA59_VpN879iAomCWExWpUGny7GVXC9KQkHkWBB0GhXrO7YC0vsfPK5PI-bvjino41NvLDRXUZ7Zxx0XNSxq6fZ5wRrJHncgPtXSAsvwppTs7EyYAIcpBIVz5NvKdm3V8kkY-_VzPwmrFr0_EJN8mNSwjN8_8lQKgTxJVclIKkJRvBkUWa7yt7-kDwJymazFQMJi-dqP38i08bRCEABUTFfpqpy5zG01_46I0P5xxFFOtRKAacABJrHU2J9hsHCGY8xFPM-N1Vao-ELaSM0IJdkq4MXi8lTln3-0m00?></g></svg>