<svg xmlns="http://www.w3.org/2000/svg" xmlns:xlink="http://www.w3.org/1999/xlink" contentStyleType="text/css" data-diagram-type="SEQUENCE" height="787px" preserveAspectRatio="none" style="width:782px;height:787px;background:#FFFFFF;" version="1.1" viewBox="0 0 782 787" width="782px" zoomAndPan="magnify"><?plantuml 1.2026.4beta2?><defs/><g><g class="participant-lifeline" data-entity-uid="part1" data-qualified-name="User" data-source-line="2" id="part1-lifeline"><g><title>User</title><rect fill="#000000" fill-opacity="0.00000" height="624.3906" width="8" x="19.9551" y="81.2969"/><line style="stroke:#181818;stroke-width:0.5;stroke-dasharray:5,5;" x1="23" x2="23" y1="81.2969" y2="705.6875"/></g></g><g class="participant-lifeline" data-entity-uid="part2" data-qualified-name="Client" data-source-line="3" id="part2-lifeline"><g><title>Client</title><rect fill="#000000" fill-opacity="0.00000" height="624.3906" width="8" x="299.4873" y="81.2969"/><line style="stroke:#181818;stroke-width:0.5;stroke-dasharray:5,5;" x1="303.2222" x2="303.2222" y1="81.2969" y2="705.6875"/></g></g><g class="participant-lifeline" data-entity-uid="part3" data-qualified-name="Api" data-source-line="4" id="part3-lifeline"><g><title>Auth API ..NET.</title><rect fill="#000000" fill-opacity="0.00000" height="624.3906" width="8" x="473.1851" y="81.2969"/><line style="stroke:#181818;stroke-width:0.5;stroke-dasharray:5,5;" x1="476.6323" x2="476.6323" y1="81.2969" y2="705.6875"/></g></g><g class="participant-lifeline" data-entity-uid="part4" data-qualified-name="Db" data-source-line="5" id="part4-lifeline"><g><title>MySQL.MariaDB</title><rect fill="#000000" fill-opacity="0.00000" height="624.3906" width="8" x="708.1504" y="81.2969"/><line style="stroke:#181818;stroke-width:0.5;stroke-dasharray:5,5;" x1="712.123" x2="712.123" y1="81.2969" y2="705.6875"/></g></g><g class="participant participant-head" data-entity-uid="part1" data-qualified-name="User" data-source-line="2" id="part1-head"><text fill="#000000" font-family="sans-serif" font-size="14" lengthAdjust="spacing" textLength="31.9102" x="5" y="77.9951">User</text><ellipse cx="23.9551" cy="13.5" fill="#E2E2F0" rx="8" ry="8" style="stroke:#181818;stroke-width:0.5;"/><path d="M23.9551,21.5 L23.9551,48.5 M10.9551,29.5 L36.9551,29.5 M23.9551,48.5 L10.9551,63.5 M23.9551,48.5 L36.9551,63.5" fill="none" style="stroke:#181818;stroke-width:0.5;"/></g><g class="participant participant-tail" data-entity-uid="part1" data-qualified-name="User" data-source-line="2" id="part1-tail"><text fill="#000000" font-family="sans-serif" font-size="14" lengthAdjust="spacing" textLength="31.9102" x="5" y="717.6826">User</text><ellipse cx="23.9551" cy="729.4844" fill="#E2E2F0" rx="8" ry="8" style="stroke:#181818;stroke-width:0.5;"/><path d="M23.9551,737.4844 L23.9551,764.4844 M10.9551,745.4844 L36.9551,745.4844 M23.9551,764.4844 L10.9551,779.4844 M23.9551,764.4844 L36.9551,779.4844" fill="none" style="stroke:#181818;stroke-width:0.5;"/></g><g class="participant participant-head" data-entity-uid="part2" data-qualified-name="Client" data-source-line="3" id="part2-head"><rect fill="#E2E2F0" height="30.2969" rx="2.5" ry="2.5" style="stroke:#181818;stroke-width:0.5;" width="54.5303" x="276.2222" y="50"/><text fill="#000000" font-family="sans-serif" font-size="14" lengthAdjust="spacing" textLength="40.5303" x="283.2222" y="69.9951">Client</text></g><g class="participant participant-tail" data-entity-uid="part2" data-qualified-name="Client" data-source-line="3" id="part2-tail"><rect fill="#E2E2F0" height="30.2969" rx="2.5" ry="2.5" style="stroke:#181818;stroke-width:0.5;" width="54.5303" x="276.2222" y="704.6875"/><text fill="#000000" font-family="sans-serif" font-size="14" lengthAdjust="spacing" textLength="40.5303" x="283.2222" y="724.6826">Client</text></g><g class="participant participant-head" data-entity-uid="part3" data-qualified-name="Api" data-source-line="4" id="part3-head"><rect fill="#E2E2F0" height="30.2969" rx="2.5" ry="2.5" style="stroke:#181818;stroke-width:0.5;" width="121.1055" x="416.6323" y="50"/><text fill="#000000" font-family="sans-serif" font-size="14" lengthAdjust="spacing" textLength="107.1055" x="423.6323" y="69.9951">Auth API (.NET)</text></g><g class="participant participant-tail" data-entity-uid="part3" data-qualified-name="Api" data-source-line="4" id="part3-tail"><rect fill="#E2E2F0" height="30.2969" rx="2.5" ry="2.5" style="stroke:#181818;stroke-width:0.5;" width="121.1055" x="416.6323" y="704.6875"/><text fill="#000000" font-family="sans-serif" font-size="14" lengthAdjust="spacing" textLength="107.1055" x="423.6323" y="724.6826">Auth API (.NET)</text></g><g class="participant participant-head" data-entity-uid="part4" data-qualified-name="Db" data-source-line="5" id="part4-head"><text fill="#000000" font-family="sans-serif" font-size="14" lengthAdjust="spacing" textLength="112.0547" x="653.123" y="77.9951">MySQL/MariaDB</text><path d="M694.1504,29 C694.1504,19 712.1504,19 712.1504,19 C712.1504,19 730.1504,19 730.1504,29 L730.1504,55 C730.1504,65 712.1504,65 712.1504,65 C712.1504,65 694.1504,65 694.1504,55 L694.1504,29" fill="#E2E2F0" style="stroke:#181818;stroke-width:0.5;"/><path d="M694.1504,29 C694.1504,39 712.1504,39 712.1504,39 C712.1504,39 730.1504,39 730.1504,29" fill="none" style="stroke:#181818;stroke-width:0.5;"/></g><g class="participant participant-tail" data-entity-uid="part4" data-qualified-name="Db" data-source-line="5" id="part4-tail"><text fill="#000000" font-family="sans-serif" font-size="14" lengthAdjust="spacing" textLength="112.0547" x="653.123" y="717.6826">MySQL/MariaDB</text><path d="M694.1504,730.9844 C694.1504,720.9844 712.1504,720.9844 712.1504,720.9844 C712.1504,720.9844 730.1504,720.9844 730.1504,730.9844 L730.1504,756.9844 C730.1504,766.9844 712.1504,766.9844 712.1504,766.9844 C712.1504,766.9844 694.1504,766.9844 694.1504,756.9844 L694.1504,730.9844" fill="#E2E2F0" style="stroke:#181818;stroke-width:0.5;"/><path d="M694.1504,730.9844 C694.1504,740.9844 712.1504,740.9844 712.1504,740.9844 C712.1504,740.9844 730.1504,740.9844 730.1504,730.9844" fill="none" style="stroke:#181818;stroke-width:0.5;"/></g><rect fill="#EEEEEE" height="3" style="stroke:#EEEEEE;stroke-width:1;" width="776.1777" x="0" y="111.8633"/><line style="stroke:#000000;stroke-width:1;" x1="0" x2="776.1777" y1="111.8633" y2="111.8633"/><line style="stroke:#000000;stroke-width:1;" x1="0" x2="776.1777" y1="114.8633" y2="114.8633"/><rect fill="#EEEEEE" height="23.1328" style="stroke:#000000;stroke-width:2;" width="80.2949" x="347.9414" y="101.2969"/><text fill="#000000" font-family="sans-serif" font-size="13" font-weight="700" lengthAdjust="spacing" textLength="61.769" x="353.9414" y="117.3638">Register</text><g class="message" data-entity-1="part1" data-entity-2="part2" data-source-line="8" id="msg1"><polygon fill="#181818" points="291.4873,151.5625,301.4873,155.5625,291.4873,159.5625,295.4873,155.5625" style="stroke:#181818;stroke-width:1;"/><line style="stroke:#181818;stroke-width:1;" x1="23.9551" x2="297.4873" y1="155.5625" y2="155.5625"/><text fill="#000000" font-family="sans-serif" font-size="13" font-weight="700" lengthAdjust="spacing" textLength="9.0454" x="30.9551" y="150.4966">1</text><text fill="#000000" font-family="sans-serif" font-size="13" lengthAdjust="spacing" textLength="242.4868" x="44.0005" y="150.4966">submit email/password/display name</text></g><g class="message" data-entity-1="part2" data-entity-2="part3" data-source-line="9" id="msg2"><polygon fill="#181818" points="465.1851,180.6953,475.1851,184.6953,465.1851,188.6953,469.1851,184.6953" style="stroke:#181818;stroke-width:1;"/><line style="stroke:#181818;stroke-width:1;" x1="303.4873" x2="471.1851" y1="184.6953" y2="184.6953"/><text fill="#000000" font-family="sans-serif" font-size="13" font-weight="700" lengthAdjust="spacing" textLength="9.0454" x="310.4873" y="179.6294">2</text><text fill="#000000" font-family="sans-serif" font-size="13" lengthAdjust="spacing" textLength="127.1182" x="323.5327" y="179.6294">POST /auth/register</text></g><g class="message" data-entity-1="part3" data-entity-2="part4" data-source-line="10" id="msg3"><polygon fill="#181818" points="700.1504,209.8281,710.1504,213.8281,700.1504,217.8281,704.1504,213.8281" style="stroke:#181818;stroke-width:1;"/><line style="stroke:#181818;stroke-width:1;" x1="477.1851" x2="706.1504" y1="213.8281" y2="213.8281"/><text fill="#000000" font-family="sans-serif" font-size="13" font-weight="700" lengthAdjust="spacing" textLength="9.0454" x="484.1851" y="208.7622">3</text><text fill="#000000" font-family="sans-serif" font-size="13" lengthAdjust="spacing" textLength="156.5396" x="497.2305" y="208.7622">check email uniqueness</text></g><g class="message" data-entity-1="part4" data-entity-2="part3" data-source-line="11" id="msg4"><polygon fill="#181818" points="488.1851,238.9609,478.1851,242.9609,488.1851,246.9609,484.1851,242.9609" style="stroke:#181818;stroke-width:1;"/><line style="stroke:#181818;stroke-width:1;stroke-dasharray:2,2;" x1="482.1851" x2="711.1504" y1="242.9609" y2="242.9609"/><text fill="#000000" font-family="sans-serif" font-size="13" font-weight="700" lengthAdjust="spacing" textLength="9.0454" x="494.1851" y="237.895">4</text><text fill="#000000" font-family="sans-serif" font-size="13" lengthAdjust="spacing" textLength="62.6831" x="507.2305" y="237.895">not found</text></g><g class="message" data-entity-1="part3" data-entity-2="part3" data-source-line="12" id="msg5"><line style="stroke:#181818;stroke-width:1;" x1="477.1851" x2="519.1851" y1="272.0938" y2="272.0938"/><line style="stroke:#181818;stroke-width:1;" x1="519.1851" x2="519.1851" y1="272.0938" y2="285.0938"/><line style="stroke:#181818;stroke-width:1;" x1="478.1851" x2="519.1851" y1="285.0938" y2="285.0938"/><polygon fill="#181818" points="488.1851,281.0938,478.1851,285.0938,488.1851,289.0938,484.1851,285.0938" style="stroke:#181818;stroke-width:1;"/><text fill="#000000" font-family="sans-serif" font-size="13" font-weight="700" lengthAdjust="spacing" textLength="9.0454" x="484.1851" y="267.0278">5</text><text fill="#000000" font-family="sans-serif" font-size="13" lengthAdjust="spacing" textLength="97.2969" x="497.2305" y="267.0278">hash password</text></g><g class="message" data-entity-1="part3" data-entity-2="part4" data-source-line="13" id="msg6"><polygon fill="#181818" points="700.1504,310.2266,710.1504,314.2266,700.1504,318.2266,704.1504,314.2266" style="stroke:#181818;stroke-width:1;"/><line style="stroke:#181818;stroke-width:1;" x1="477.1851" x2="706.1504" y1="314.2266" y2="314.2266"/><text fill="#000000" font-family="sans-serif" font-size="13" font-weight="700" lengthAdjust="spacing" textLength="9.0454" x="484.1851" y="309.1606">6</text><text fill="#000000" font-family="sans-serif" font-size="13" lengthAdjust="spacing" textLength="163.4902" x="497.2305" y="309.1606">insert user + default role</text></g><g class="message" data-entity-1="part4" data-entity-2="part3" data-source-line="14" id="msg7"><polygon fill="#181818" points="488.1851,339.3594,478.1851,343.3594,488.1851,347.3594,484.1851,343.3594" style="stroke:#181818;stroke-width:1;"/><line style="stroke:#181818;stroke-width:1;stroke-dasharray:2,2;" x1="482.1851" x2="711.1504" y1="343.3594" y2="343.3594"/><text fill="#000000" font-family="sans-serif" font-size="13" font-weight="700" lengthAdjust="spacing" textLength="9.0454" x="494.1851" y="338.2935">7</text><text fill="#000000" font-family="sans-serif" font-size="13" lengthAdjust="spacing" textLength="88.4165" x="507.2305" y="338.2935">user id + role</text></g><g class="message" data-entity-1="part3" data-entity-2="part3" data-source-line="15" id="msg8"><line style="stroke:#181818;stroke-width:1;" x1="477.1851" x2="519.1851" y1="372.4922" y2="372.4922"/><line style="stroke:#181818;stroke-width:1;" x1="519.1851" x2="519.1851" y1="372.4922" y2="385.4922"/><line style="stroke:#181818;stroke-width:1;" x1="478.1851" x2="519.1851" y1="385.4922" y2="385.4922"/><polygon fill="#181818" points="488.1851,381.4922,478.1851,385.4922,488.1851,389.4922,484.1851,385.4922" style="stroke:#181818;stroke-width:1;"/><text fill="#000000" font-family="sans-serif" font-size="13" font-weight="700" lengthAdjust="spacing" textLength="9.0454" x="484.1851" y="367.4263">8</text><text fill="#000000" font-family="sans-serif" font-size="13" lengthAdjust="spacing" textLength="70.313" x="497.2305" y="367.4263">create JWT</text></g><g class="message" data-entity-1="part3" data-entity-2="part2" data-source-line="16" id="msg9"><polygon fill="#181818" points="314.4873,410.625,304.4873,414.625,314.4873,418.625,310.4873,414.625" style="stroke:#181818;stroke-width:1;"/><line style="stroke:#181818;stroke-width:1;stroke-dasharray:2,2;" x1="308.4873" x2="476.1851" y1="414.625" y2="414.625"/><text fill="#000000" font-family="sans-serif" font-size="13" font-weight="700" lengthAdjust="spacing" textLength="9.0454" x="320.4873" y="409.5591">9</text><text fill="#000000" font-family="sans-serif" font-size="13" lengthAdjust="spacing" textLength="136.6523" x="333.5327" y="409.5591">201 Created + token</text></g><rect fill="#EEEEEE" height="3" style="stroke:#EEEEEE;stroke-width:1;" width="776.1777" x="0" y="443.1914"/><line style="stroke:#000000;stroke-width:1;" x1="0" x2="776.1777" y1="443.1914" y2="443.1914"/><line style="stroke:#000000;stroke-width:1;" x1="0" x2="776.1777" y1="446.1914" y2="446.1914"/><rect fill="#EEEEEE" height="23.1328" style="stroke:#000000;stroke-width:2;" width="58.7573" x="358.7102" y="432.625"/><text fill="#000000" font-family="sans-serif" font-size="13" font-weight="700" lengthAdjust="spacing" textLength="40.2314" x="364.7102" y="448.6919">Login</text><g class="message" data-entity-1="part1" data-entity-2="part2" data-source-line="19" id="msg10"><polygon fill="#181818" points="291.4873,482.8906,301.4873,486.8906,291.4873,490.8906,295.4873,486.8906" style="stroke:#181818;stroke-width:1;"/><line style="stroke:#181818;stroke-width:1;" x1="23.9551" x2="297.4873" y1="486.8906" y2="486.8906"/><text fill="#000000" font-family="sans-serif" font-size="13" font-weight="700" lengthAdjust="spacing" textLength="18.0908" x="30.9551" y="481.8247">10</text><text fill="#000000" font-family="sans-serif" font-size="13" lengthAdjust="spacing" textLength="150.9473" x="53.0459" y="481.8247">submit email/password</text></g><g class="message" data-entity-1="part2" data-entity-2="part3" data-source-line="20" id="msg11"><polygon fill="#181818" points="465.1851,512.0234,475.1851,516.0234,465.1851,520.0234,469.1851,516.0234" style="stroke:#181818;stroke-width:1;"/><line style="stroke:#181818;stroke-width:1;" x1="303.4873" x2="471.1851" y1="516.0234" y2="516.0234"/><text fill="#000000" font-family="sans-serif" font-size="13" font-weight="700" lengthAdjust="spacing" textLength="18.0908" x="310.4873" y="510.9575">11</text><text fill="#000000" font-family="sans-serif" font-size="13" lengthAdjust="spacing" textLength="108.3672" x="332.5781" y="510.9575">POST /auth/login</text></g><g class="message" data-entity-1="part3" data-entity-2="part4" data-source-line="21" id="msg12"><polygon fill="#181818" points="700.1504,541.1563,710.1504,545.1563,700.1504,549.1563,704.1504,545.1563" style="stroke:#181818;stroke-width:1;"/><line style="stroke:#181818;stroke-width:1;" x1="477.1851" x2="706.1504" y1="545.1563" y2="545.1563"/><text fill="#000000" font-family="sans-serif" font-size="13" font-weight="700" lengthAdjust="spacing" textLength="18.0908" x="484.1851" y="540.0903">12</text><text fill="#000000" font-family="sans-serif" font-size="13" lengthAdjust="spacing" textLength="117.2285" x="506.2759" y="540.0903">find user by email</text></g><g class="message" data-entity-1="part4" data-entity-2="part3" data-source-line="22" id="msg13"><polygon fill="#181818" points="488.1851,570.2891,478.1851,574.2891,488.1851,578.2891,484.1851,574.2891" style="stroke:#181818;stroke-width:1;"/><line style="stroke:#181818;stroke-width:1;stroke-dasharray:2,2;" x1="482.1851" x2="711.1504" y1="574.2891" y2="574.2891"/><text fill="#000000" font-family="sans-serif" font-size="13" font-weight="700" lengthAdjust="spacing" textLength="18.0908" x="494.1851" y="569.2231">13</text><text fill="#000000" font-family="sans-serif" font-size="13" lengthAdjust="spacing" textLength="188.8745" x="516.2759" y="569.2231">user + password hash + role</text></g><g class="message" data-entity-1="part3" data-entity-2="part3" data-source-line="23" id="msg14"><line style="stroke:#181818;stroke-width:1;" x1="477.1851" x2="519.1851" y1="603.4219" y2="603.4219"/><line style="stroke:#181818;stroke-width:1;" x1="519.1851" x2="519.1851" y1="603.4219" y2="616.4219"/><line style="stroke:#181818;stroke-width:1;" x1="478.1851" x2="519.1851" y1="616.4219" y2="616.4219"/><polygon fill="#181818" points="488.1851,612.4219,478.1851,616.4219,488.1851,620.4219,484.1851,616.4219" style="stroke:#181818;stroke-width:1;"/><text fill="#000000" font-family="sans-serif" font-size="13" font-weight="700" lengthAdjust="spacing" textLength="18.0908" x="484.1851" y="598.356">14</text><text fill="#000000" font-family="sans-serif" font-size="13" lengthAdjust="spacing" textLength="102.9971" x="506.2759" y="598.356">verify password</text></g><g class="message" data-entity-1="part3" data-entity-2="part3" data-source-line="24" id="msg15"><line style="stroke:#181818;stroke-width:1;" x1="477.1851" x2="519.1851" y1="645.5547" y2="645.5547"/><line style="stroke:#181818;stroke-width:1;" x1="519.1851" x2="519.1851" y1="645.5547" y2="658.5547"/><line style="stroke:#181818;stroke-width:1;" x1="478.1851" x2="519.1851" y1="658.5547" y2="658.5547"/><polygon fill="#181818" points="488.1851,654.5547,478.1851,658.5547,488.1851,662.5547,484.1851,658.5547" style="stroke:#181818;stroke-width:1;"/><text fill="#000000" font-family="sans-serif" font-size="13" font-weight="700" lengthAdjust="spacing" textLength="18.0908" x="484.1851" y="640.4888">15</text><text fill="#000000" font-family="sans-serif" font-size="13" lengthAdjust="spacing" textLength="170.1997" x="506.2759" y="640.4888">create JWT with role claim</text></g><g class="message" data-entity-1="part3" data-entity-2="part2" data-source-line="25" id="msg16"><polygon fill="#181818" points="314.4873,683.6875,304.4873,687.6875,314.4873,691.6875,310.4873,687.6875" style="stroke:#181818;stroke-width:1;"/><line style="stroke:#181818;stroke-width:1;stroke-dasharray:2,2;" x1="308.4873" x2="476.1851" y1="687.6875" y2="687.6875"/><text fill="#000000" font-family="sans-serif" font-size="13" font-weight="700" lengthAdjust="spacing" textLength="18.0908" x="320.4873" y="682.6216">16</text><text fill="#000000" font-family="sans-serif" font-size="13" lengthAdjust="spacing" textLength="103.6763" x="342.5781" y="682.6216">200 OK + token</text></g><?plantuml-src ZL9DJy904BtlhvXmqX0iUYIf2L8FAWWAnlEqdT89xMxT3qd_lVsWf0WntZRpvhrvxsNHMILT7f8M65cbuSDKpmArvOWBb1O6iun9sW6WWVPv2a-TJM6wUeAhczV7pNMpDorOn6WnH4CmM9JhjxctGCqOF3Hu40hX-_1EMpQMDFY-gE_2wFvmOWB6XJbRe1mvymeqPgzqxCLiYWnBa9YJQ5ThKdLl0glbUWCULdOyVH0M5L3ZGJY1AALer-g1a_pbI98n8WXXr2b8PI5HJiOThvccQ5Be7FGLMLQUBRZQ-H1YIj1b5hJAw4IrmJckLXgeBnrfGalm_BbfnxtyT-DRc3LmpRHgHxBfRAwsBFzTs1yTPRLGFqx2CcxDXcKhSnvZU2oYhUL2fc_Id9HdXVtA2tkklarDXYX3pY_a7yFofOl-0m00?></g></svg>