<svg xmlns="http://www.w3.org/2000/svg" xmlns:xlink="http://www.w3.org/1999/xlink" contentStyleType="text/css" data-diagram-type="DESCRIPTION" height="706px" preserveAspectRatio="none" style="width:716px;height:706px;background:#FFFFFF;" version="1.1" viewBox="0 0 716 706" width="716px" zoomAndPan="magnify"><?plantuml 1.2026.4beta2?><defs/><g><!--cluster LUCY Phase 1 System--><g class="cluster" data-qualified-name="LUCY Phase 1 System" data-source-line="8" id="ent0005"><rect fill="none" height="685" rx="2.5" ry="2.5" style="stroke:#181818;stroke-width:1;" width="530.57" x="171.9" y="7"/><text fill="#000000" font-family="sans-serif" font-size="14" font-weight="700" lengthAdjust="spacing" textLength="170.8848" x="351.7426" y="21.9951">LUCY Phase 1 System</text></g><!--entity UC_Public--><g class="entity" data-qualified-name="LUCY Phase 1 System.UC_Public" data-source-line="9" id="ent0006"><ellipse cx="312.3015" cy="58.9983" fill="#F1F1F1" rx="74.3415" ry="17.2683" style="stroke:#181818;stroke-width:0.5;"/><text fill="#000000" font-family="sans-serif" font-size="14" lengthAdjust="spacing" textLength="117.127" x="253.738" y="63.6467">View public intro</text></g><!--entity UC_Register--><g class="entity" data-qualified-name="LUCY Phase 1 System.UC_Register" data-source-line="10" id="ent0007"><ellipse cx="312.3037" cy="129.0007" fill="#F1F1F1" rx="74.9037" ry="17.3807" style="stroke:#181818;stroke-width:0.5;"/><text fill="#000000" font-family="sans-serif" font-size="14" lengthAdjust="spacing" textLength="118.4941" x="253.0566" y="133.6492">Register account</text></g><!--entity UC_Login--><g class="entity" data-qualified-name="LUCY Phase 1 System.UC_Login" data-source-line="11" id="ent0008"><ellipse cx="312.3004" cy="196.0036" fill="#F1F1F1" rx="29.8804" ry="14.5236" style="stroke:#181818;stroke-width:0.5;"/><text fill="#000000" font-family="sans-serif" font-size="14" lengthAdjust="spacing" textLength="38.0146" x="293.2931" y="200.6521">Login</text></g><!--entity UC_Jwt--><g class="entity" data-qualified-name="LUCY Phase 1 System.UC_Jwt" data-source-line="12" id="ent0009"><ellipse cx="624.0763" cy="162.9973" fill="#F1F1F1" rx="62.3863" ry="14.8773" style="stroke:#181818;stroke-width:0.5;"/><text fill="#000000" font-family="sans-serif" font-size="14" lengthAdjust="spacing" textLength="86.4131" x="580.8697" y="167.6457">Receive JWT</text></g><!--entity UC_Learners--><g class="entity" data-qualified-name="LUCY Phase 1 System.UC_Learners" data-source-line="13" id="ent0010"><ellipse cx="312.3034" cy="267.0047" fill="#F1F1F1" rx="93.7234" ry="21.1447" style="stroke:#181818;stroke-width:0.5;"/><text fill="#000000" font-family="sans-serif" font-size="14" lengthAdjust="spacing" textLength="162.1211" x="231.2429" y="271.6531">View assigned learners</text></g><!--entity UC_ReviewContent--><g class="entity" data-qualified-name="LUCY Phase 1 System.UC_ReviewContent" data-source-line="14" id="ent0011"><ellipse cx="312.2985" cy="345.0017" fill="#F1F1F1" rx="97.4585" ry="21.8917" style="stroke:#181818;stroke-width:0.5;"/><text fill="#000000" font-family="sans-serif" font-size="14" lengthAdjust="spacing" textLength="170.4404" x="227.0783" y="349.6501">Review learning content</text></g><!--entity UC_Import--><g class="entity" data-qualified-name="LUCY Phase 1 System.UC_Import" data-source-line="15" id="ent0012"><ellipse cx="312.2966" cy="656.0013" fill="#F1F1F1" rx="86.6066" ry="19.7213" style="stroke:#181818;stroke-width:0.5;"/><text fill="#000000" font-family="sans-serif" font-size="14" lengthAdjust="spacing" textLength="146.0156" x="239.2888" y="660.6498">Import Word content</text></g><!--entity UC_ContentModel--><g class="entity" data-qualified-name="LUCY Phase 1 System.UC_ContentModel" data-source-line="16" id="ent0013"><ellipse cx="312.296" cy="501.9992" fill="#F1F1F1" rx="124.396" ry="27.2792" style="stroke:#181818;stroke-width:0.5;"/><text fill="#000000" font-family="sans-serif" font-size="14" lengthAdjust="spacing" textLength="228.71" x="197.941" y="506.6476">Manage languages/stages/levels</text></g><!--entity UC_Roles--><g class="entity" data-qualified-name="LUCY Phase 1 System.UC_Roles" data-source-line="17" id="ent0014"><ellipse cx="312.2999" cy="583.002" fill="#F1F1F1" rx="79.3599" ry="18.272" style="stroke:#181818;stroke-width:0.5;"/><text fill="#000000" font-family="sans-serif" font-size="14" lengthAdjust="spacing" textLength="129.165" x="247.7173" y="587.6504">Manage user roles</text></g><!--entity UC_UML--><g class="entity" data-qualified-name="LUCY Phase 1 System.UC_UML" data-source-line="18" id="ent0015"><ellipse cx="312.3028" cy="421.0046" fill="#F1F1F1" rx="81.0728" ry="18.6146" style="stroke:#181818;stroke-width:0.5;"/><text fill="#000000" font-family="sans-serif" font-size="14" lengthAdjust="spacing" textLength="133.1982" x="245.7037" y="425.653">Review UML model</text></g><!--entity Anonymous--><g class="entity" data-qualified-name="Anonymous" data-source-line="4" id="ent0002"><ellipse cx="65.4521" cy="99.35" fill="#F1F1F1" rx="8" ry="8" style="stroke:#181818;stroke-width:0.5;"/><path d="M65.4521,107.35 L65.4521,134.35 M52.4521,115.35 L78.4521,115.35 M65.4521,134.35 L52.4521,149.35 M65.4521,134.35 L78.4521,149.35" fill="none" style="stroke:#181818;stroke-width:0.5;"/><text fill="#000000" font-family="sans-serif" font-size="14" lengthAdjust="spacing" textLength="118.9043" x="6" y="163.8451">Anonymous User</text></g><!--entity Pro--><g class="entity" data-qualified-name="Pro" data-source-line="5" id="ent0003"><ellipse cx="65.4499" cy="268.2" fill="#F1F1F1" rx="8" ry="8" style="stroke:#181818;stroke-width:0.5;"/><path d="M65.4499,276.2 L65.4499,303.2 M52.4499,284.2 L78.4499,284.2 M65.4499,303.2 L52.4499,318.2 M65.4499,303.2 L78.4499,318.2" fill="none" style="stroke:#181818;stroke-width:0.5;"/><text fill="#000000" font-family="sans-serif" font-size="14" lengthAdjust="spacing" textLength="22.7637" x="35.3" y="332.6951">Pro</text><text fill="#000000" font-family="sans-serif" font-size="14" lengthAdjust="spacing" textLength="60.2998" x="35.3" y="348.992">(Mentor)</text></g><!--entity Super--><g class="entity" data-qualified-name="Super" data-source-line="6" id="ent0004"><ellipse cx="65.449" cy="464.2" fill="#F1F1F1" rx="8" ry="8" style="stroke:#181818;stroke-width:0.5;"/><path d="M65.449,472.2 L65.449,499.2 M52.449,480.2 L78.449,480.2 M65.449,499.2 L52.449,514.2 M65.449,499.2 L78.449,514.2" fill="none" style="stroke:#181818;stroke-width:0.5;"/><text fill="#000000" font-family="sans-serif" font-size="14" lengthAdjust="spacing" textLength="41.0156" x="33.72" y="528.6951">Super</text><text fill="#000000" font-family="sans-serif" font-size="14" lengthAdjust="spacing" textLength="63.458" x="33.72" y="544.992">(Creator)</text></g><!--link Anonymous to UC_Public--><g class="link" data-entity-1="ent0002" data-entity-2="ent0006" data-link-type="dependency" data-source-line="21" id="lnk16"><path d="M125.37,106.65 C138,102.19 151.33,97.74 163.9,94 C194.03,85.04 222.2946,78.1292 250.1146,71.9092" fill="none" id="Anonymous-to-UC_Public" style="stroke:#181818;stroke-width:1;"/><polygon fill="#181818" points="255.97,70.6,246.3141,68.6601,251.0905,71.691,248.0596,76.4674,255.97,70.6" style="stroke:#181818;stroke-width:1;"/></g><!--link Anonymous to UC_Register--><g class="link" data-entity-1="ent0002" data-entity-2="ent0007" data-link-type="dependency" data-source-line="22" id="lnk17"><path d="M125.1,129 C158.77,129 195.37,129 231.33,129" fill="none" id="Anonymous-to-UC_Register" style="stroke:#181818;stroke-width:1;"/><polygon fill="#181818" points="237.33,129,228.33,125,232.33,129,228.33,133,237.33,129" style="stroke:#181818;stroke-width:1;"/></g><!--link Anonymous to UC_Login--><g class="link" data-entity-1="ent0002" data-entity-2="ent0008" data-link-type="dependency" data-source-line="23" id="lnk18"><path d="M125.31,151.54 C137.95,155.98 151.29,160.38 163.9,164 C205.06,175.8 247.8706,184.486 277.6906,190.016" fill="none" id="Anonymous-to-UC_Login" style="stroke:#181818;stroke-width:1;"/><polygon fill="#181818" points="283.59,191.11,275.4702,185.536,278.6738,190.1983,274.0115,193.4019,283.59,191.11" style="stroke:#181818;stroke-width:1;"/></g><!--link UC_Login to UC_Jwt--><g class="link" data-entity-1="ent0008" data-entity-2="ent0009" data-link-type="dependency" data-source-line="24" id="lnk19"><path d="M342.16,198.1 C384.18,200.56 464.53,203.03 531.7,192 C551.74,188.71 567.7806,183.9909 585.0006,177.8309" fill="none" id="UC_Login-to-UC_Jwt" style="stroke:#181818;stroke-width:1;"/><polygon fill="#181818" points="590.65,175.81,580.8286,175.0751,585.9422,177.4941,583.5232,182.6077,590.65,175.81" style="stroke:#181818;stroke-width:1;"/><text fill="#000000" font-family="sans-serif" font-size="13" lengthAdjust="spacing" textLength="63.0068" x="467.7" y="188.0669">«include»</text></g><!--link UC_Register to UC_Jwt--><g class="link" data-entity-1="ent0007" data-entity-2="ent0009" data-link-type="dependency" data-source-line="25" id="lnk20"><path d="M380.9,136.42 C436.53,142.53 508.5158,150.4253 560.8058,156.1653" fill="none" id="UC_Register-to-UC_Jwt" style="stroke:#181818;stroke-width:1;"/><polygon fill="#181818" points="566.77,156.82,558.2602,151.8618,561.7999,156.2744,557.3873,159.8141,566.77,156.82" style="stroke:#181818;stroke-width:1;"/><text fill="#000000" font-family="sans-serif" font-size="13" lengthAdjust="spacing" textLength="63.0068" x="467.7" y="142.0669">«include»</text></g><!--link Pro to UC_Login--><g class="link" data-entity-1="ent0003" data-entity-2="ent0008" data-link-type="dependency" data-source-line="27" id="lnk21"><path d="M95.97,276.33 C114.12,259.73 138.66,240.02 163.9,228 C202.44,209.65 245.6955,202.3415 276.3655,198.9915" fill="none" id="Pro-to-UC_Login" style="stroke:#181818;stroke-width:1;"/><polygon fill="#181818" points="282.33,198.34,272.9489,195.3409,277.3596,198.8829,273.8175,203.2936,282.33,198.34" style="stroke:#181818;stroke-width:1;"/></g><!--link Pro to UC_Learners--><g class="link" data-entity-1="ent0003" data-entity-2="ent0010" data-link-type="dependency" data-source-line="28" id="lnk22"><path d="M95.99,301.3 C130.14,295.86 181.7547,287.6339 228.7747,280.1439" fill="none" id="Pro-to-UC_Learners" style="stroke:#181818;stroke-width:1;"/><polygon fill="#181818" points="234.7,279.2,225.1828,276.6656,229.7623,279.9866,226.4413,284.566,234.7,279.2" style="stroke:#181818;stroke-width:1;"/></g><!--link Pro to UC_ReviewContent--><g class="link" data-entity-1="ent0003" data-entity-2="ent0011" data-link-type="dependency" data-source-line="29" id="lnk23"><path d="M95.99,310.7 C129.44,316.03 179.4147,323.996 225.8647,331.396" fill="none" id="Pro-to-UC_ReviewContent" style="stroke:#181818;stroke-width:1;"/><polygon fill="#181818" points="231.79,332.34,223.5314,326.9739,226.8523,331.5534,222.2728,334.8742,231.79,332.34" style="stroke:#181818;stroke-width:1;"/></g><!--link Pro to UC_UML--><g class="link" data-entity-1="ent0003" data-entity-2="ent0015" data-link-type="dependency" data-source-line="30" id="lnk24"><path d="M95.69,334.99 C113.93,351.56 138.67,371.48 163.9,384 C188.84,396.37 212.3982,403.5497 238.3582,409.2197" fill="none" id="Pro-to-UC_UML" style="stroke:#181818;stroke-width:1;"/><polygon fill="#181818" points="244.22,410.5,236.2808,404.6717,239.3352,409.4331,234.5738,412.4874,244.22,410.5" style="stroke:#181818;stroke-width:1;"/></g><!--link Super to UC_Login--><g class="link" data-entity-1="ent0004" data-entity-2="ent0008" data-link-type="dependency" data-source-line="32" id="lnk25"><path d="M89.15,455.34 C100.77,430.39 114.59,398.92 124.9,370 C130.4,354.59 152.03,239.25 163.9,228 C195.84,197.75 243.341,193.311 276.351,193.911" fill="none" id="Super-to-UC_Login" style="stroke:#181818;stroke-width:1;"/><polygon fill="#181818" points="282.35,194.02,273.4242,189.8571,277.3508,193.9291,273.2788,197.8558,282.35,194.02" style="stroke:#181818;stroke-width:1;"/></g><!--link Super to UC_Import--><g class="link" data-entity-1="ent0004" data-entity-2="ent0012" data-link-type="dependency" data-source-line="33" id="lnk26"><path d="M94.91,548.74 C112.04,573.11 135.93,601.42 163.9,619 C185.35,632.48 205.5863,639.7333 229.8163,645.1833" fill="none" id="Super-to-UC_Import" style="stroke:#181818;stroke-width:1;"/><polygon fill="#181818" points="235.67,646.5,227.7672,640.6225,230.7919,645.4028,226.0116,648.4275,235.67,646.5" style="stroke:#181818;stroke-width:1;"/></g><!--link Super to UC_ContentModel--><g class="link" data-entity-1="ent0004" data-entity-2="ent0013" data-link-type="dependency" data-source-line="34" id="lnk27"><path d="M97.46,502 C120.69,502 148.12,502 181.66,502" fill="none" id="Super-to-UC_ContentModel" style="stroke:#181818;stroke-width:1;"/><polygon fill="#181818" points="187.66,502,178.66,498,182.66,502,178.66,506,187.66,502" style="stroke:#181818;stroke-width:1;"/></g><!--link Super to UC_Roles--><g class="link" data-entity-1="ent0004" data-entity-2="ent0014" data-link-type="dependency" data-source-line="35" id="lnk28"><path d="M97.42,518.17 C116.26,527.53 141.03,539.01 163.9,547 C192.01,556.82 218.1657,563.6656 245.1557,569.7256" fill="none" id="Super-to-UC_Roles" style="stroke:#181818;stroke-width:1;"/><polygon fill="#181818" points="251.01,571.04,243.1049,565.1655,246.1315,569.9446,241.3523,572.9712,251.01,571.04" style="stroke:#181818;stroke-width:1;"/></g><!--link Super to UC_UML--><g class="link" data-entity-1="ent0004" data-entity-2="ent0015" data-link-type="dependency" data-source-line="36" id="lnk29"><path d="M97.42,485.83 C116.26,476.47 141.03,464.99 163.9,457 C191.63,447.31 217.3172,440.561 244.0772,434.521" fill="none" id="Super-to-UC_UML" style="stroke:#181818;stroke-width:1;"/><polygon fill="#181818" points="249.93,433.2,240.2702,431.2797,245.0527,434.3009,242.0315,439.0834,249.93,433.2" style="stroke:#181818;stroke-width:1;"/></g><?plantuml-src TP9VIyCm5CNVyoakVTA78RxA6CYU72kCpJe4GM9wxSBIfDoa6qFyxgRjKXCtdzhxE-UU_BbH-Ed06I1PxHoKab0uQJIpUwaRJho6Xeizht3ZJWgXaxck53B6XJC4sQCs-bIRra9XaJBW5aOKF2ioR_ecH-shszxYIH0tROFavJaX7_KUCZOk1zcocB_2QiSjmZriJjPXdS4N0sWjYevcBnAFqBGVIWgGsf7fauhv-wfdiNMDbVG915m8qseNd877tgMff0w6laYJ1Ce3mcBx73oBexlO5hTMLXfBKCX98zany5odcOUkfxTANO4msc6yoKwU3p3kUweRGmwsXig_FOCKctEk_LH1-Ujj_O-ziwx_A3oW6hTtNYKt9QehtRuc8ADmR5XtnPN35FaIwYub63rWtupzFf_9P1ODwuAFexbGXfc4dq3z5E01fbEfXMfBdCrO5FA_YVcNcGR780mhOkaq8g4x8ElVSPgNeFDS4fRSUQ8CbviWlyeF?></g></svg>